<svg width="152" height="32" viewBox="0 0 152 32" fill="none" xmlns="http://www.w3.org/2000/svg">
<g id="Chicks Gold">
<g id="Icon">
<rect id="Rectangle 287" x="110.567" y="15.1494" width="8.83786" height="1.40683" fill="#B6B6B6"/>
<rect id="Rectangle 288" x="110.567" y="14.1826" width="8.83786" height="0.650661" fill="#B6B6B6"/>
<path id="Path 3334" d="M122.057 3.98005C121.763 3.98005 121.526 4.22418 121.526 4.52521C121.526 4.74891 121.657 4.94061 121.845 5.02468L118.882 10.7007H118.223L119.097 2.76864C119.429 2.76335 119.696 2.48674 119.696 2.14543C119.696 1.80057 119.424 1.52115 119.088 1.52115C118.752 1.52115 118.48 1.80057 118.48 2.14543C118.48 2.44421 118.685 2.69322 118.958 2.75457L116.63 10.6479H115.979L114.949 1.53625C115.313 1.48159 115.594 1.16276 115.594 0.773773C115.594 0.346424 115.256 0 114.84 0C114.424 0 114.087 0.346413 114.087 0.773773C114.087 1.16732 114.374 1.48859 114.744 1.53753L113.838 10.6479H113.187L110.784 2.72943C111.017 2.64165 111.183 2.41445 111.183 2.14543C111.183 1.80057 110.911 1.52115 110.575 1.52115C110.24 1.52115 109.967 1.80057 109.967 2.14543C109.967 2.49028 110.24 2.76971 110.575 2.76971C110.618 2.76971 110.66 2.7648 110.701 2.75614L111.543 10.8062H110.875L107.557 5.01462C107.734 4.92637 107.858 4.74136 107.858 4.52522C107.858 4.22419 107.62 3.98006 107.327 3.98006C107.034 3.98006 106.796 4.22419 106.796 4.52522C106.796 4.82632 107.034 5.07038 107.327 5.07038C107.354 5.07038 107.38 5.06634 107.406 5.06212L110.567 13.7606H119.405L121.978 5.06227C122.004 5.06634 122.03 5.07037 122.057 5.07037C122.35 5.07037 122.588 4.82631 122.588 4.52521C122.588 4.22418 122.35 3.98005 122.057 3.98005H122.057Z" fill="#B6B6B6"/>
</g>
<g id="Name">
<path id="Path 3325" fill-rule="evenodd" clip-rule="evenodd" d="M15.9727 31.7282V31.3651C16.4306 31.3412 16.7741 31.2927 17.0035 31.2199C17.2325 31.1475 17.3841 31.0021 17.4583 30.7844C17.5321 30.5664 17.5694 30.2398 17.5694 29.804V20.8C17.5694 20.3525 17.5321 20.0226 17.4583 19.8109C17.3841 19.5991 17.229 19.4539 16.9934 19.375C16.7575 19.2965 16.4173 19.2511 15.9727 19.2389V18.876C16.2824 18.888 16.6833 18.9002 17.1752 18.9121C17.667 18.9243 18.196 18.9305 18.762 18.9305C19.274 18.9305 19.7758 18.9243 20.2679 18.9121C20.7597 18.9002 21.1673 18.888 21.4908 18.876V19.2389C21.0462 19.2511 20.709 19.2965 20.4801 19.375C20.2507 19.4539 20.0961 19.5991 20.0152 19.8109C19.9344 20.0226 19.8938 20.3525 19.8938 20.8V29.804C19.8938 30.2398 19.9344 30.5664 20.0152 30.7844C20.0961 31.0021 20.2507 31.1475 20.4801 31.2199C20.709 31.2927 21.0462 31.3412 21.4908 31.3651V31.7282C21.1673 31.7041 20.7597 31.689 20.2679 31.6828C19.7758 31.6769 19.274 31.6738 18.762 31.6738C18.196 31.6738 17.667 31.6769 17.1752 31.6828C16.6833 31.689 16.2824 31.7041 15.9727 31.7282ZM18.9845 25.4477V25.0846H26.9687V25.4477H18.9845ZM24.4621 31.7282V31.3651C24.92 31.3412 25.2636 31.2927 25.4929 31.2199C25.7219 31.1475 25.8736 31.0021 25.9478 30.7844C26.0216 30.5664 26.0589 30.2398 26.0589 29.804V20.8C26.0589 20.3525 26.0216 20.0226 25.9478 19.8109C25.8736 19.5991 25.7184 19.4539 25.4829 19.375C25.2468 19.2965 24.9067 19.2511 24.4621 19.2389V18.876C24.7987 18.888 25.2201 18.9002 25.7254 18.9121C26.2306 18.9243 26.7326 18.9305 27.2313 18.9305C27.7972 18.9305 28.3226 18.9243 28.8078 18.9121C29.293 18.9002 29.6836 18.888 29.9802 18.876V19.2389C29.5354 19.2511 29.1985 19.2965 28.9695 19.375C28.7404 19.4539 28.5854 19.5991 28.5046 19.8109C28.4239 20.0226 28.3833 20.3525 28.3833 20.8V29.804C28.3833 30.2398 28.4239 30.5664 28.5046 30.7844C28.5854 31.0021 28.7404 31.1475 28.9695 31.2199C29.1985 31.2927 29.5355 31.3412 29.9802 31.3651V31.7282C29.6836 31.7041 29.293 31.689 28.8078 31.6828C28.3226 31.6769 27.7972 31.6738 27.2313 31.6738C26.7326 31.6738 26.2306 31.6769 25.7254 31.6828C25.2201 31.689 24.7987 31.7041 24.4621 31.7282Z" fill="#B6B6B6"/>
<path id="Path 3326" d="M38.3985 18.876V19.2389C37.9398 19.2511 37.5922 19.2965 37.356 19.375C37.1194 19.4539 36.9598 19.5991 36.8763 19.8109C36.7929 20.0226 36.7513 20.3525 36.7513 20.8V29.804C36.7513 30.2398 36.7929 30.5664 36.8763 30.7844C36.9598 31.0021 37.1194 31.1475 37.356 31.2199C37.5922 31.2927 37.9398 31.3412 38.3985 31.3651V31.7282C38.0648 31.7041 37.6442 31.689 37.137 31.6828C36.6293 31.6769 36.1117 31.6738 35.5835 31.6738C34.9996 31.6738 34.4541 31.6769 33.9466 31.6828C33.4392 31.689 33.0256 31.7041 32.7061 31.7282V31.3651C33.1785 31.3412 33.5329 31.2927 33.7694 31.2199C34.0056 31.1475 34.1621 31.0021 34.2386 30.7844C34.3148 30.5664 34.3532 30.2398 34.3532 29.804V20.8C34.3532 20.3525 34.3148 20.0226 34.2386 19.8109C34.1621 19.5991 34.0021 19.4539 33.7591 19.375C33.5157 19.2965 33.1649 19.2511 32.7061 19.2389V18.876C33.0256 18.888 33.4392 18.9002 33.9466 18.9121C34.4541 18.9243 34.9996 18.9305 35.5835 18.9305C36.1117 18.9305 36.6293 18.9243 37.137 18.9121C37.6442 18.9002 38.0648 18.888 38.3985 18.876Z" fill="#B6B6B6"/>
<path id="Path 3327" d="M48.042 18.6057C48.9167 18.6057 49.6355 18.724 50.1989 18.9608C50.7622 19.1972 51.2626 19.4733 51.6999 19.7886C51.965 19.9706 52.1672 19.992 52.3063 19.8525C52.4454 19.713 52.5414 19.3823 52.5946 18.8607H53.0518C53.025 19.3218 53.0053 19.8768 52.9921 20.5256C52.9788 21.1748 52.9722 22.0393 52.9722 23.1189H52.5149C52.422 22.5852 52.3327 22.1486 52.2466 21.8086C52.1602 21.4692 52.0478 21.178 51.9087 20.9353C51.7694 20.6926 51.5805 20.456 51.342 20.2256C50.9576 19.7886 50.4872 19.4733 49.9306 19.2791C49.3738 19.0852 48.7841 18.988 48.1612 18.988C47.4854 18.988 46.8888 19.1428 46.3719 19.452C45.855 19.7613 45.4208 20.2014 45.0698 20.7713C44.7186 21.3418 44.4501 22.0151 44.2646 22.7914C44.079 23.5681 43.9864 24.4173 43.9864 25.3393C43.9864 26.2854 44.0858 27.1439 44.2845 27.9142C44.4833 28.6848 44.7716 29.3459 45.1494 29.8978C45.527 30.4501 45.9843 30.8747 46.5211 31.1719C47.0578 31.4692 47.6574 31.6178 48.3202 31.6178C48.8635 31.6178 49.4266 31.5175 50.01 31.3173C50.5931 31.1171 51.057 30.8109 51.4017 30.3985C51.7727 30.0345 52.0279 29.6249 52.1672 29.1699C52.3063 28.7149 52.422 28.0934 52.5149 27.3047H52.9722C52.9722 28.4211 52.9788 29.3218 52.9921 30.0072C53.0053 30.6926 53.025 31.2719 53.0518 31.745H52.5946C52.5414 31.2235 52.4519 30.8961 52.3261 30.7623C52.2001 30.6289 51.9912 30.6473 51.6999 30.8169C51.2094 31.1325 50.6891 31.4083 50.1393 31.6449C49.5891 31.8817 48.8833 31.9998 48.022 31.9998C46.71 31.9998 45.5633 31.739 44.5827 31.2172C43.6017 30.6959 42.8399 29.9435 42.2965 28.9606C41.7528 27.9781 41.4814 26.795 41.4814 25.4119C41.4814 24.0534 41.7629 22.8641 42.3264 21.8452C42.8894 20.826 43.6614 20.0315 44.6424 19.4611C45.623 18.8909 46.7562 18.6057 48.042 18.6057L48.042 18.6057Z" fill="#B6B6B6"/>
<path id="Path 3328" fill-rule="evenodd" clip-rule="evenodd" d="M62.2423 18.876V19.2389C61.792 19.2511 61.4509 19.2965 61.2191 19.375C60.987 19.4539 60.8305 19.5992 60.7485 19.8109C60.6668 20.0226 60.6257 20.3525 60.6257 20.8V29.804C60.6257 30.2398 60.6668 30.5664 60.7485 30.7844C60.8305 31.0021 60.987 31.1475 61.2191 31.2199C61.4509 31.2927 61.792 31.3412 62.2423 31.3652V31.7282C61.9149 31.7041 61.5022 31.6891 61.0043 31.6828C60.5062 31.6769 59.9982 31.6738 59.4799 31.6738C58.907 31.6738 58.3714 31.6769 57.8736 31.6828C57.3755 31.6891 56.9698 31.7041 56.6562 31.7282V31.3652C57.1198 31.3412 57.4676 31.2927 57.6997 31.2199C57.9315 31.1475 58.0849 31.0021 58.1602 30.7844C58.2349 30.5664 58.2726 30.2398 58.2726 29.804V20.8C58.2726 20.3525 58.2349 20.0226 58.1602 19.8109C58.0849 19.5992 57.928 19.4539 57.6896 19.375C57.4508 19.2965 57.1063 19.2511 56.6562 19.2389V18.876C56.9698 18.888 57.3755 18.9002 57.8736 18.9121C58.3714 18.9243 58.907 18.9305 59.4799 18.9305C59.9982 18.9305 60.5062 18.9243 61.0043 18.9121C61.5022 18.9002 61.9149 18.888 62.2423 18.876ZM68.9536 18.876V19.2389C68.517 19.2996 68.084 19.4358 67.6543 19.6473C67.2247 19.8594 66.7915 20.2073 66.3551 20.6913L62.4263 25.0479L63.1221 23.9405L68.0329 30.2578C68.251 30.5483 68.4863 30.7785 68.7389 30.9477C68.9912 31.1173 69.3149 31.2562 69.7108 31.3652V31.7282C69.3425 31.7041 68.899 31.6891 68.3807 31.6828C67.8622 31.6769 67.4053 31.6738 67.0098 31.6738C66.7643 31.6738 66.4606 31.6769 66.0993 31.6828C65.7376 31.6891 65.284 31.7041 64.7385 31.7282V31.3652C65.2432 31.3412 65.5536 31.2685 65.6695 31.1475C65.7854 31.0265 65.7343 30.827 65.5162 30.5483L62.5492 26.4638C62.3037 26.1252 62.0852 25.8681 61.8943 25.6923C61.7033 25.5172 61.5057 25.4019 61.3011 25.3474C61.0963 25.293 60.8438 25.2598 60.5439 25.2477V24.8664C61.1168 24.8544 61.6111 24.7395 62.0274 24.5214C62.4434 24.3036 62.8358 24.0072 63.2039 23.6321L64.9022 21.726C65.3797 21.2057 65.6866 20.7609 65.8231 20.3918C65.9592 20.0226 65.9254 19.7412 65.7208 19.5475C65.5162 19.3541 65.134 19.2511 64.5748 19.2389V18.876C64.9975 18.888 65.4241 18.9002 65.8538 18.9121C66.2835 18.9243 66.7164 18.9305 67.153 18.9305C67.9168 18.9305 68.517 18.9121 68.9536 18.876L68.9536 18.876Z" fill="#B6B6B6"/>
<path id="Path 3329" d="M77.7431 18.6446C78.4124 18.6446 78.9241 18.7175 79.2776 18.8631C79.6311 19.0085 79.9408 19.1664 80.2061 19.336C80.3576 19.4212 80.4806 19.4847 80.5755 19.527C80.6702 19.5697 80.7617 19.5907 80.8502 19.5907C81.052 19.5907 81.1911 19.3241 81.2669 18.7903H81.7027C81.6898 19.0085 81.6742 19.2664 81.6552 19.5634C81.6364 19.8608 81.6237 20.252 81.6174 20.7372C81.6108 21.2223 81.608 21.8592 81.608 22.6475H81.1722C81.1344 22.0534 80.9984 21.4771 80.7649 20.919C80.531 20.3612 80.1899 19.9063 79.7417 19.5543C79.2933 19.2026 78.7218 19.0267 78.0272 19.0267C77.3831 19.0267 76.8494 19.2118 76.4265 19.5816C76.0031 19.9518 75.7917 20.44 75.7917 21.0464C75.7917 21.5803 75.9305 22.0261 76.2086 22.3837C76.4863 22.7417 76.8684 23.0751 77.3546 23.3844C77.8407 23.6939 78.3934 24.0366 79.0124 24.4125C79.6439 24.8009 80.2122 25.1858 80.7175 25.568C81.2224 25.9499 81.6204 26.3715 81.9109 26.8325C82.2014 27.2936 82.3468 27.8513 82.3468 28.5064C82.3468 29.2951 82.154 29.9469 81.7689 30.4625C81.3835 30.9783 80.8691 31.3632 80.2249 31.618C79.5809 31.8725 78.8733 31.9999 78.1031 31.9999C77.3956 31.9999 76.8338 31.9271 76.4169 31.7815C76.0002 31.636 75.6463 31.4844 75.356 31.3266C75.078 31.1571 74.8634 31.0719 74.7118 31.0719C74.5097 31.0719 74.3708 31.3389 74.2951 31.8725H73.8594C73.8845 31.606 73.9001 31.2934 73.9066 30.9356C73.913 30.5778 73.9192 30.1076 73.9256 29.5253C73.9318 28.9431 73.9351 28.2093 73.9351 27.3237H74.3708C74.4212 28.076 74.5633 28.7795 74.7971 29.4345C75.0307 30.0895 75.3906 30.6144 75.877 31.0082C76.3631 31.4026 77.0105 31.5997 77.8188 31.5997C78.4503 31.5997 79.0124 31.4148 79.505 31.0446C79.9976 30.6749 80.2439 30.0956 80.2439 29.307C80.2439 28.5674 79.9753 27.9516 79.4387 27.4601C78.9018 26.9688 78.1978 26.4685 77.3264 25.959C76.7325 25.5953 76.1768 25.2314 75.6592 24.8673C75.1411 24.5034 74.7276 24.0791 74.4183 23.5936C74.1086 23.1087 73.9541 22.5323 73.9541 21.8651C73.9541 21.1254 74.1341 20.5187 74.494 20.0456C74.854 19.5726 75.3211 19.2208 75.8959 18.9904C76.4705 18.76 77.0862 18.6445 77.7431 18.6445L77.7431 18.6446Z" fill="#B6B6B6"/>
<path id="Path 3330" d="M98.3715 18.6057C99.2051 18.6057 99.8806 18.724 100.399 18.9608C100.917 19.1972 101.39 19.4733 101.82 19.7886C101.984 19.9101 102.11 19.9706 102.199 19.9706C102.438 19.9706 102.596 19.6007 102.672 18.8607H103.108C103.082 19.3218 103.064 19.8768 103.051 20.5256C103.038 21.1748 103.032 22.0393 103.032 23.1189H102.596C102.508 22.5366 102.391 21.9969 102.246 21.4993C102.101 21.002 101.851 20.5774 101.498 20.2256C101.156 19.8372 100.711 19.5338 100.162 19.3156C99.6125 19.0971 99.0536 18.988 98.4851 18.988C97.8282 18.988 97.2473 19.1427 96.7424 19.4519C96.2369 19.7613 95.8106 20.2014 95.4634 20.7713C95.1159 21.3418 94.8508 22.012 94.6677 22.7824C94.4846 23.5529 94.3931 24.3991 94.3931 25.3209C94.3931 27.5049 94.7436 29.1035 95.4444 30.1164C96.1454 31.1295 97.2033 31.6358 98.6179 31.6358C99.0219 31.6358 99.3725 31.5812 99.6693 31.472C99.9659 31.363 100.203 31.2538 100.38 31.1446C100.594 30.999 100.733 30.8564 100.796 30.7169C100.86 30.5775 100.891 30.3925 100.891 30.1617V28.3965C100.891 27.875 100.844 27.4898 100.749 27.241C100.654 26.9924 100.468 26.8225 100.19 26.7315C99.9123 26.6403 99.5083 26.5889 98.9777 26.5766V26.2127C99.2177 26.2249 99.5018 26.234 99.8303 26.24C100.159 26.2463 100.503 26.2522 100.863 26.2581C101.223 26.2644 101.548 26.2672 101.839 26.2672C102.293 26.2672 102.707 26.2613 103.08 26.2492C103.452 26.2372 103.758 26.2249 103.998 26.2127V26.5766C103.607 26.6013 103.354 26.6982 103.24 26.8678C103.127 27.0379 103.07 27.4625 103.07 28.1417V31.745H102.691C102.678 31.5388 102.631 31.3145 102.549 31.0716C102.467 30.8291 102.344 30.7078 102.179 30.7078C102.091 30.7078 101.999 30.7259 101.905 30.7623C101.81 30.7988 101.649 30.8896 101.422 31.0353C100.98 31.3264 100.518 31.5602 100.039 31.736C99.5586 31.9116 99.0157 31.9998 98.4094 31.9998C96.3635 31.9998 94.7845 31.4267 93.6732 30.28C92.5615 29.1335 92.0059 27.5411 92.0059 25.5029C92.0059 24.0957 92.2808 22.8764 92.83 21.8452C93.3795 20.814 94.1309 20.0161 95.0845 19.452C96.038 18.888 97.1337 18.6057 98.3715 18.6057L98.3715 18.6057Z" fill="#B6B6B6"/>
<path id="Path 3331" fill-rule="evenodd" clip-rule="evenodd" d="M115.2 18.6057C116.574 18.6057 117.782 18.8668 118.826 19.3882C119.87 19.9101 120.679 20.6594 121.254 21.6358C121.828 22.6125 122.116 23.7986 122.116 25.1937C122.116 26.5526 121.821 27.7413 121.233 28.7604C120.644 29.7797 119.825 30.5743 118.774 31.1446C117.723 31.7149 116.525 31.9998 115.179 31.9998C113.792 31.9998 112.58 31.739 111.543 31.2172C110.506 30.6959 109.7 29.9435 109.126 28.9606C108.551 27.9781 108.264 26.795 108.264 25.4119C108.264 24.0534 108.562 22.8641 109.157 21.8452C109.753 20.8259 110.569 20.0315 111.606 19.461C112.643 18.8909 113.841 18.6057 115.2 18.6057L115.2 18.6057ZM115.116 18.933C114.247 18.933 113.49 19.206 112.846 19.7519C112.201 20.2978 111.704 21.0503 111.353 22.0085C111.003 22.9671 110.828 24.0773 110.828 25.339C110.828 26.6249 111.024 27.7443 111.416 28.6966C111.809 29.649 112.341 30.3829 113.014 30.8984C113.687 31.4143 114.436 31.6719 115.263 31.6719C116.132 31.6719 116.885 31.399 117.523 30.8531C118.16 30.307 118.658 29.5519 119.015 28.5872C119.372 27.6227 119.551 26.5157 119.551 25.266C119.551 23.9681 119.351 22.8456 118.952 21.8995C118.553 20.953 118.02 20.2222 117.355 19.7064C116.689 19.191 115.943 18.933 115.116 18.933L115.116 18.933Z" fill="#B6B6B6"/>
<path id="Path 3332" d="M131.456 18.876V19.2389C131.003 19.2511 130.66 19.2965 130.427 19.3751C130.194 19.4539 130.038 19.5992 129.958 19.8109C129.878 20.0226 129.838 20.3525 129.838 20.8V29.8767C129.838 30.2882 129.874 30.5968 129.947 30.8024C130.021 31.0084 130.167 31.1445 130.387 31.211C130.607 31.2775 130.923 31.3107 131.336 31.3107H132.634C133.406 31.3107 134.019 31.1808 134.471 30.9205C134.924 30.6605 135.27 30.2641 135.51 29.7315C135.75 29.199 135.922 28.5214 136.029 27.6982H136.489C136.449 28.0857 136.429 28.594 136.429 29.2233C136.429 29.4655 136.439 29.8193 136.459 30.285C136.479 30.7513 136.515 31.2323 136.569 31.7282C135.89 31.7041 135.124 31.689 134.272 31.6828C133.419 31.6769 132.661 31.6738 131.995 31.6738H130.347C129.661 31.6738 128.929 31.6769 128.15 31.6828C127.371 31.689 126.642 31.7041 125.963 31.7282V31.3651C126.416 31.3412 126.755 31.2927 126.982 31.2199C127.208 31.1475 127.358 31.0021 127.431 30.7844C127.504 30.5664 127.541 30.2398 127.541 29.804V20.8C127.541 20.3525 127.504 20.0226 127.431 19.8109C127.358 19.5991 127.204 19.4539 126.971 19.375C126.738 19.2965 126.402 19.2511 125.963 19.2389V18.876C126.269 18.888 126.665 18.9002 127.151 18.9121C127.637 18.9243 128.16 18.9305 128.719 18.9305C129.225 18.9305 129.728 18.9243 130.227 18.9121C130.726 18.9002 131.136 18.888 131.456 18.876V18.876Z" fill="#B6B6B6"/>
<path id="Path 3333" fill-rule="evenodd" clip-rule="evenodd" d="M144.808 18.876C147.238 18.876 149.044 19.4176 150.227 20.5005C151.409 21.5837 152 23.1358 152 25.1568C152 26.476 151.711 27.6289 151.133 28.615C150.555 29.6016 149.717 30.3667 148.62 30.9113C147.524 31.4559 146.194 31.7282 144.631 31.7282C144.342 31.7282 143.912 31.7193 143.34 31.701C142.769 31.6828 142.266 31.6738 141.833 31.6738C141.334 31.6738 140.844 31.6769 140.365 31.6828C139.885 31.689 139.495 31.7041 139.192 31.7282V31.3651C139.639 31.3412 139.974 31.2927 140.197 31.2199C140.421 31.1475 140.568 31.0021 140.641 30.7844C140.713 30.5664 140.749 30.2398 140.749 29.804V20.8C140.749 20.3525 140.713 20.0226 140.641 19.8109C140.568 19.5991 140.417 19.4539 140.187 19.375C139.957 19.2965 139.626 19.2511 139.192 19.2389V18.876C139.495 18.888 139.885 18.9032 140.365 18.9212C140.844 18.9393 141.321 18.9425 141.793 18.9305C142.266 18.9184 142.795 18.9062 143.38 18.8939C143.964 18.8821 144.44 18.876 144.808 18.876H144.808ZM144.473 19.2022C143.868 19.2022 143.474 19.3052 143.291 19.5108C143.106 19.7167 143.015 20.1342 143.015 20.7633V29.8398C143.015 30.4692 143.11 30.8869 143.3 31.0925C143.491 31.2983 143.888 31.401 144.493 31.401C145.819 31.401 146.85 31.1623 147.586 30.6839C148.321 30.2061 148.84 29.5071 149.143 28.5872C149.445 27.6677 149.596 26.5483 149.596 25.229C149.596 23.1958 149.215 21.6831 148.453 20.6908C147.691 19.6985 146.364 19.2022 144.473 19.2022L144.473 19.2022Z" fill="#B6B6B6"/>
<path id="Path 3324" d="M6.97244 18.6057C7.90211 18.6057 8.666 18.724 9.26482 18.9608C9.86346 19.1972 10.3953 19.4733 10.86 19.7886C11.1417 19.9706 11.3566 19.992 11.5045 19.8525C11.6523 19.713 11.7543 19.3823 11.8109 18.8607H12.2968C12.2683 19.3218 12.2474 19.8768 12.2334 20.5256C12.2192 21.1748 12.2124 22.0393 12.2124 23.1189H11.7262C11.6277 22.5852 11.5326 22.1486 11.4411 21.8086C11.3492 21.4692 11.2298 21.178 11.082 20.9353C10.9339 20.6926 10.7331 20.456 10.4797 20.2256C10.0711 19.7886 9.57121 19.4733 8.97964 19.2791C8.38806 19.0852 7.76113 18.988 7.09909 18.988C6.38086 18.988 5.74687 19.1428 5.19751 19.452C4.64816 19.7613 4.18667 20.2014 3.81361 20.7713C3.44037 21.3418 3.15499 22.0151 2.95789 22.7914C2.76055 23.5681 2.66217 24.4173 2.66217 25.3393C2.66217 26.2854 2.76779 27.1439 2.97906 27.9142C3.19032 28.6848 3.4967 29.3459 3.89823 29.8978C4.29955 30.4501 4.78552 30.8747 5.35607 31.1719C5.92642 31.4692 6.56369 31.6178 7.26812 31.6178C7.84557 31.6178 8.44401 31.5175 9.06408 31.3173C9.68373 31.1171 10.1767 30.8109 10.5431 30.3985C10.9373 30.0345 11.2086 29.6249 11.3566 29.1699C11.5045 28.7149 11.6277 28.0934 11.7262 27.3047H12.2124C12.2124 28.4211 12.2192 29.3218 12.2334 30.0072C12.2474 30.6926 12.2683 31.2719 12.2968 31.745H11.8109C11.7543 31.2235 11.6594 30.8961 11.5255 30.7623C11.3916 30.6289 11.1698 30.6473 10.86 30.8169C10.3387 31.1325 9.78571 31.4083 9.20141 31.6449C8.6167 31.8817 7.86679 31.9998 6.95126 31.9998C5.55683 31.9998 4.33815 31.739 3.29598 31.2172C2.25341 30.6959 1.44369 29.9435 0.866247 28.9606C0.28843 27.9781 0 26.795 0 25.4119C0 24.0534 0.299129 22.8641 0.897987 21.8452C1.49641 20.826 2.31682 20.0315 3.35938 19.4611C4.40156 18.8909 5.60592 18.6057 6.97244 18.6057V18.6057Z" fill="#B6B6B6"/>
</g>
</g>
</svg>
