<!DOCTYPE svg PUBLIC "-//W3C//DTD SVG 1.1//EN" "http://www.w3.org/Graphics/SVG/1.1/DTD/svg11.dtd">
<!-- Uploaded to: SVG Repo, www.svgrepo.com, Transformed by: SVG Repo Mixer Tools -->
<svg fill="#41CA99" width="800px" height="800px" viewBox="0 0 24 24" id="money-bag" data-name="Flat Line" xmlns="http://www.w3.org/2000/svg" class="icon flat-line">
<g id="SVGRepo_bgCarrier" stroke-width="0"/>
<g id="SVGRepo_tracerCarrier" stroke-linecap="round" stroke-linejoin="round"/>
<g id="SVGRepo_iconCarrier">
<path id="secondary" d="M11,21a14.43,14.43,0,0,0,4.19-.57A4,4,0,0,0,18,16.61h0a6.87,6.87,0,0,0-.72-3l-3-6a1,1,0,0,0-.9-.55H8.62a1,1,0,0,0-.9.55l-3,6a6.87,6.87,0,0,0-.72,3H4a4,4,0,0,0,2.81,3.82A14.43,14.43,0,0,0,11,21Z" style="fill: #41CA99; stroke-width:0.72;"/>
<path id="primary" d="M13.28,7s2.87-.23,4.08.57A3.54,3.54,0,0,0,20,8" style="fill: none; stroke: #000000; stroke-linecap: round; stroke-linejoin: round; stroke-width:0.72;"/>
<path id="primary-2" data-name="primary" d="M8.72,7,8.21,4.18A1,1,0,0,1,9.2,3h3.6a1,1,0,0,1,1,1.18L13.28,7ZM11,21a14.43,14.43,0,0,0,4.19-.57A4,4,0,0,0,18,16.61h0a6.87,6.87,0,0,0-.72-3l-3-6a1,1,0,0,0-.9-.55H8.62a1,1,0,0,0-.9.55l-3,6a6.87,6.87,0,0,0-.72,3H4a4,4,0,0,0,2.81,3.82A14.43,14.43,0,0,0,11,21Z" style="fill: none; stroke: #000000; stroke-linecap: round; stroke-linejoin: round; stroke-width:0.72;"/>
</g>
</svg>